<?xml version="1.0" encoding="UTF-8"?>
<!DOCTYPE svg PUBLIC "-//W3C//DTD SVG 1.1//EN" "http://www.w3.org/Graphics/SVG/1.1/DTD/svg11.dtd">
<svg xmlns="http://www.w3.org/2000/svg" version="1.1" width="16px" height="16px" style="shape-rendering:geometricPrecision; text-rendering:geometricPrecision; image-rendering:optimizeQuality; fill-rule:evenodd; clip-rule:evenodd" xmlns:xlink="http://www.w3.org/1999/xlink">
<g><path style="opacity:0.937" fill="#b47127" d="M 3.5,-0.5 C 4.83333,-0.5 6.16667,-0.5 7.5,-0.5C 7.67474,1.6208 7.34141,3.6208 6.5,5.5C 6.5,6.5 6.5,7.5 6.5,8.5C 6.5,9.16667 6.16667,9.5 5.5,9.5C 4.66175,9.15829 4.32842,8.49162 4.5,7.5C 4.17876,5.95186 3.17876,5.28519 1.5,5.5C 1.2525,3.14166 1.91917,1.14166 3.5,-0.5 Z"/></g>
<g><path style="opacity:0.881" fill="#945221" d="M 7.5,-0.5 C 8.5,-0.5 9.5,-0.5 10.5,-0.5C 12.385,1.05322 13.385,3.05322 13.5,5.5C 9.5,6.16667 9.5,6.83333 13.5,7.5C 13.5,7.83333 13.5,8.16667 13.5,8.5C 12.209,8.26269 11.209,8.59603 10.5,9.5C 10.1667,9.5 9.83333,9.5 9.5,9.5C 8.50838,9.67158 7.84171,9.33825 7.5,8.5C 7.41423,7.5041 7.74756,6.67076 8.5,6C 7.90558,5.53566 7.23891,5.36899 6.5,5.5C 7.34141,3.6208 7.67474,1.6208 7.5,-0.5 Z"/></g>
<g><path style="opacity:1" fill="#e3c4a7" d="M -0.5,5.5 C 0.166667,5.5 0.833333,5.5 1.5,5.5C 3.17876,5.28519 4.17876,5.95186 4.5,7.5C 3.5,7.5 2.5,7.5 1.5,7.5C 0.833333,7.5 0.166667,7.5 -0.5,7.5C -0.5,6.83333 -0.5,6.16667 -0.5,5.5 Z"/></g>
<g><path style="opacity:0.914" fill="#164049" d="M 6.5,5.5 C 7.23891,5.36899 7.90558,5.53566 8.5,6C 7.74756,6.67076 7.41423,7.5041 7.5,8.5C 7.16667,8.5 6.83333,8.5 6.5,8.5C 6.5,7.5 6.5,6.5 6.5,5.5 Z"/></g>
<g><path style="opacity:1" fill="#d3af99" d="M 13.5,5.5 C 14.1667,5.5 14.8333,5.5 15.5,5.5C 15.5,6.16667 15.5,6.83333 15.5,7.5C 14.8333,7.5 14.1667,7.5 13.5,7.5C 9.5,6.83333 9.5,6.16667 13.5,5.5 Z"/></g>
<g><path style="opacity:0.984" fill="#be7b33" d="M 1.5,7.5 C 2.5,7.5 3.5,7.5 4.5,7.5C 4.32842,8.49162 4.66175,9.15829 5.5,9.5C 4.65859,11.3792 4.32526,13.3792 4.5,15.5C 2.83333,15.5 1.16667,15.5 -0.5,15.5C -0.5,15.1667 -0.5,14.8333 -0.5,14.5C 0.906316,14.0269 1.57298,13.0269 1.5,11.5C 2.50633,10.6043 2.50633,9.93767 1.5,9.5C 1.5,8.83333 1.5,8.16667 1.5,7.5 Z"/></g>
<g><path style="opacity:0.969" fill="#9b5622" d="M 9.5,9.5 C 9.83333,9.5 10.1667,9.5 10.5,9.5C 12.0269,9.42702 13.0269,10.0937 13.5,11.5C 13.8333,12.8333 14.1667,14.1667 14.5,15.5C 12.8333,15.5 11.1667,15.5 9.5,15.5C 9.5,13.5 9.5,11.5 9.5,9.5 Z"/></g>
<g><path style="opacity:0.678" fill="#e7d1c6" d="M 10.5,9.5 C 11.209,8.59603 12.209,8.26269 13.5,8.5C 13.8417,9.33825 14.5084,9.67158 15.5,9.5C 15.5,10.1667 15.5,10.8333 15.5,11.5C 14.8333,11.5 14.1667,11.5 13.5,11.5C 13.0269,10.0937 12.0269,9.42702 10.5,9.5 Z"/></g>
<g><path style="opacity:0.392" fill="#f7f0ec" d="M -0.5,9.5 C 0.166667,9.5 0.833333,9.5 1.5,9.5C 2.50633,9.93767 2.50633,10.6043 1.5,11.5C 0.833333,11.5 0.166667,11.5 -0.5,11.5C -0.5,10.8333 -0.5,10.1667 -0.5,9.5 Z"/></g>
<g><path style="opacity:1" fill="#f7cd8a" d="M 6.5,8.5 C 6.83333,8.5 7.16667,8.5 7.5,8.5C 7.84171,9.33825 8.50838,9.67158 9.5,9.5C 9.5,11.5 9.5,13.5 9.5,15.5C 7.83333,15.5 6.16667,15.5 4.5,15.5C 4.32526,13.3792 4.65859,11.3792 5.5,9.5C 6.16667,9.5 6.5,9.16667 6.5,8.5 Z"/></g>
</svg>
