<?xml version="1.0" encoding="UTF-8"?>
<!DOCTYPE svg PUBLIC "-//W3C//DTD SVG 1.1//EN" "http://www.w3.org/Graphics/SVG/1.1/DTD/svg11.dtd">
<svg xmlns="http://www.w3.org/2000/svg" version="1.1" width="16px" height="16px" style="shape-rendering:geometricPrecision; text-rendering:geometricPrecision; image-rendering:optimizeQuality; fill-rule:evenodd; clip-rule:evenodd" xmlns:xlink="http://www.w3.org/1999/xlink">
<g><path style="opacity:1" fill="#ffd53c" d="M 4.5,-0.5 C 5.5,-0.5 6.5,-0.5 7.5,-0.5C 7.83333,0.166667 8.16667,0.833333 8.5,1.5C 8.16667,2.16667 7.83333,2.83333 7.5,3.5C 6.83333,3.5 6.16667,3.5 5.5,3.5C 5.16667,3.5 4.83333,3.5 4.5,3.5C 4.67158,2.50838 4.33825,1.84171 3.5,1.5C 3.5,1.16667 3.5,0.833333 3.5,0.5C 4.16667,0.5 4.5,0.166667 4.5,-0.5 Z"/></g>
<g><path style="opacity:1" fill="#d4c6d5" d="M 11.5,0.5 C 11.5,0.166667 11.5,-0.166667 11.5,-0.5C 12.5,-0.5 13.5,-0.5 14.5,-0.5C 14.5,0.166667 14.8333,0.5 15.5,0.5C 15.5,1.5 15.5,2.5 15.5,3.5C 14.8333,3.5 14.5,3.83333 14.5,4.5C 14.1667,4.5 13.8333,4.5 13.5,4.5C 13.7709,2.6203 13.1042,1.28696 11.5,0.5 Z"/></g>
<g><path style="opacity:0.808" fill="#eae0e9" d="M 8.5,1.5 C 8.83333,1.5 9.16667,1.5 9.5,1.5C 10.1667,2.83333 11.1667,3.83333 12.5,4.5C 12.5,4.83333 12.5,5.16667 12.5,5.5C 11.8333,5.5 11.1667,5.5 10.5,5.5C 9.5,4.83333 8.5,4.16667 7.5,3.5C 7.83333,2.83333 8.16667,2.16667 8.5,1.5 Z"/></g>
<g><path style="opacity:1" fill="#e84a5f" d="M 11.5,0.5 C 13.1042,1.28696 13.7709,2.6203 13.5,4.5C 13.1667,4.5 12.8333,4.5 12.5,4.5C 11.1667,3.83333 10.1667,2.83333 9.5,1.5C 9.84171,0.661754 10.5084,0.32842 11.5,0.5 Z"/></g>
<g><path style="opacity:0.344" fill="#ebeef6" d="M 3.5,0.5 C 3.5,0.833333 3.5,1.16667 3.5,1.5C 3.5,2.16667 3.5,2.83333 3.5,3.5C 2.60895,4.10978 1.60895,4.44312 0.5,4.5C 0.166667,4.5 -0.166667,4.5 -0.5,4.5C -0.5,3.83333 -0.5,3.16667 -0.5,2.5C 0.46739,1.19376 1.80072,0.527092 3.5,0.5 Z"/></g>
<g><path style="opacity:0.909" fill="#a97764" d="M 3.5,3.5 C 3.83333,3.5 4.16667,3.5 4.5,3.5C 4.83333,3.5 5.16667,3.5 5.5,3.5C 5.32526,5.6208 5.65859,7.6208 6.5,9.5C 6.63088,10.3764 6.29755,11.0431 5.5,11.5C 4.4763,10.1468 3.14297,9.48015 1.5,9.5C 1.5,10.8333 1.5,12.1667 1.5,13.5C 3.83333,13.5 6.16667,13.5 8.5,13.5C 7.5,14.1667 6.5,14.8333 5.5,15.5C 3.5,15.5 1.5,15.5 -0.5,15.5C -0.5,12.5 -0.5,9.5 -0.5,6.5C 0.338246,6.15829 0.67158,5.49162 0.5,4.5C 1.60895,4.44312 2.60895,4.10978 3.5,3.5 Z"/></g>
<g><path style="opacity:1" fill="#9d6050" d="M 5.5,3.5 C 6.16667,3.5 6.83333,3.5 7.5,3.5C 8.5,4.16667 9.5,4.83333 10.5,5.5C 11.4137,8.72797 11.7471,12.0613 11.5,15.5C 9.5,15.5 7.5,15.5 5.5,15.5C 6.5,14.8333 7.5,14.1667 8.5,13.5C 9.97579,11.2911 9.30913,9.95774 6.5,9.5C 5.65859,7.6208 5.32526,5.6208 5.5,3.5 Z"/></g>
<g><path style="opacity:0.776" fill="#5d646a" d="M 12.5,4.5 C 12.8333,4.5 13.1667,4.5 13.5,4.5C 13.8333,4.5 14.1667,4.5 14.5,4.5C 14.5,5.16667 14.8333,5.5 15.5,5.5C 15.5,6.83333 15.5,8.16667 15.5,9.5C 14.0256,8.56366 13.0256,7.23033 12.5,5.5C 12.5,5.16667 12.5,4.83333 12.5,4.5 Z"/></g>
<g><path style="opacity:1" fill="#f4aa94" d="M 6.5,9.5 C 9.30913,9.95774 9.97579,11.2911 8.5,13.5C 6.16667,13.5 3.83333,13.5 1.5,13.5C 1.5,12.1667 1.5,10.8333 1.5,9.5C 3.14297,9.48015 4.4763,10.1468 5.5,11.5C 6.29755,11.0431 6.63088,10.3764 6.5,9.5 Z"/></g>
</svg>
